<svg id="图层_1" data-name="图层 1" xmlns="http://www.w3.org/2000/svg" viewBox="0 0 650.17 77.49"><defs><style>.cls-1{fill:#0081cc;}.cls-2{fill:#fff;}.cls-3{fill:#a368a8;}.cls-4{fill:#9e440a;}.cls-5{fill:#e50012;}.cls-6{fill:#ea5404;}.cls-7{fill:#00873f;}.cls-8{fill:#00a396;}.cls-9{fill:#00a5c4;}</style></defs><path class="cls-1" d="M401.16,384.72a2,2,0,0,1-2-2V372a2,2,0,0,1,2-2h62.93a2,2,0,0,1,2,2v10.73a2,2,0,0,1-2,2Zm9.22-24.13a2,2,0,0,1-2-2V347.94a2,2,0,0,1,2-2h44.14a2,2,0,0,1,2,2v10.65a2,2,0,0,1-2,2Zm-5.19-22.89a2,2,0,0,1-2-2V325a2,2,0,0,1,2-2h55.16a2,2,0,0,1,2,2V335.7a2,2,0,0,1-2,2Z" transform="translate(-397.16 -313.12)"/><path class="cls-2" d="M460.35,325V335.7H405.19V325h55.16m-5.83,23v10.65H410.38V347.94h44.14M464.09,372v10.73H401.16V372h62.93m-3.74-51H405.19a4,4,0,0,0-4,4V335.7a4,4,0,0,0,4,4h55.16a4,4,0,0,0,4-4V325a4,4,0,0,0-4-4Zm-5.83,23H410.38a4,4,0,0,0-4,4v10.65a4,4,0,0,0,4,4h44.14a4,4,0,0,0,4-4V347.94a4,4,0,0,0-4-4ZM464.09,368H401.16a4,4,0,0,0-4,4v10.73a4,4,0,0,0,4,4h62.93a4,4,0,0,0,4-4V372a4,4,0,0,0-4-4Z" transform="translate(-397.16 -313.12)"/><path class="cls-3" d="M499.16,388.39a2,2,0,0,1-2-2V344.18a95.76,95.76,0,0,1-18.7,11.12,2,2,0,0,1-.83.18,2,2,0,0,1-1.79-1.1,41,41,0,0,0-7.32-9.84,2,2,0,0,1,.75-3.32c10.81-3.72,25.38-10.94,33.35-24.26a2,2,0,0,1,1.72-1,1.9,1.9,0,0,1,.86.2l9.43,4.46a2,2,0,0,1,1,1.22,2,2,0,0,1-.18,1.6c-.44.74-.88,1.49-1.34,2.23,9.18,8,18.08,13.31,26.48,15.87a2,2,0,0,1,1.37,1.51,2,2,0,0,1-.66,1.93,29.93,29.93,0,0,0-7.17,9.37,2,2,0,0,1-1.83,1.18,1.93,1.93,0,0,1-.81-.17,81.39,81.39,0,0,1-19.44-12.27v43.28a2,2,0,0,1-2,2Zm10-47.78q-1.91-1.67-4-3.59c-1.19,1.23-2.44,2.42-3.75,3.59Z" transform="translate(-397.16 -313.12)"/><path class="cls-2" d="M504.34,318l9.43,4.47c-.72,1.22-1.44,2.45-2.23,3.6,12.1,10.8,21.67,15.33,28.52,17.42a32.07,32.07,0,0,0-7.71,10.08c-6.48-2.88-15.05-7.63-27.22-19.37-7.77,8.5-17.42,14.69-27.5,19.3a43.3,43.3,0,0,0-7.71-10.37c13.83-4.75,27-12.74,34.42-25.13m5.76,24.63v43.78H499.16V342.61H510.1M504.34,314a4,4,0,0,0-3.43,1.95c-7.67,12.8-21.79,19.79-32.29,23.4a4,4,0,0,0-1.49,6.65,39.11,39.11,0,0,1,6.92,9.29,4,4,0,0,0,3.58,2.21,3.92,3.92,0,0,0,1.66-.36,100.24,100.24,0,0,0,15.87-9v38.26a4,4,0,0,0,4,4H510.1a4,4,0,0,0,4-4V347.24a79.15,79.15,0,0,0,16.63,10,4,4,0,0,0,5.27-2,28.11,28.11,0,0,1,6.65-8.67,4,4,0,0,0-1.43-6.87c-7.74-2.37-16-7.2-24.47-14.38l.47-.79a4,4,0,0,0-1.74-5.65l-9.43-4.46a4,4,0,0,0-1.71-.39Z" transform="translate(-397.16 -313.12)"/><path class="cls-4" d="M584.81,388.53a2,2,0,0,1-1.95-1.71,41.89,41.89,0,0,0-3.41-10.41,2,2,0,0,1,1.79-2.89h.1c4.15.21,8.65.21,10.21.21v-8.41l-8.06,4a2.1,2.1,0,0,1-.89.2,1.88,1.88,0,0,1-.87-.2,2,2,0,0,1-1.08-1.39,46.77,46.77,0,0,0-4-10.44,2,2,0,0,1-.36,1.41L570,367.61a2,2,0,0,1-1.62.83h-.19a2,2,0,0,1-1.62-1.14l-.37-.76v20a2,2,0,0,1-2,2H554a2,2,0,0,1-2-2V370.72a40.52,40.52,0,0,1-3.72,5.55,2,2,0,0,1-1.55.74,2.22,2.22,0,0,1-.37,0,2,2,0,0,1-1.54-1.35,59.27,59.27,0,0,0-4.92-9.81,2,2,0,0,1,.2-2.35c3.81-4.37,7.54-11.45,10-18.93h-6.36a2,2,0,0,1-2-2v-9.87a2,2,0,0,1,2-2H552V318.13a2,2,0,0,1,2-2h10.15a2,2,0,0,1,2,2v12.54H573a2,2,0,0,1,.82.18,2,2,0,0,1,1.19-.39h16.51V318.2a2,2,0,0,1,2-2h10.73a2,2,0,0,1,2,2v12.26h5.13a2,2,0,0,1,2,2v9.93a2,2,0,0,1-2,2h-5.13v29.69c0,5.66-.95,9.89-5.59,12.16-3.07,1.61-7.43,2.3-14.52,2.3Zm-18.59-44c2.61,2.84,7.77,9.17,9.64,11.54-.79-1.47-1.63-2.91-2.5-4.25a2,2,0,0,1-.24-1.63,2,2,0,0,1,1-1.25l8.64-4.18a1.94,1.94,0,0,1,.87-.2,2,2,0,0,1,1.63.84,73.49,73.49,0,0,1,6.24,10.51V344.39H575a2,2,0,0,1-.88-.2,2,2,0,0,1-1.13.35Z" transform="translate(-397.16 -313.12)"/><path class="cls-2" d="M564.17,318.13v14.54H573v9.87h-8.86v2.73c2.38,2.45,8.93,10.52,10.44,12.46l-6.26,8.71c-1-2.16-2.59-4.89-4.18-7.63v27.72H554V361.91a53.55,53.55,0,0,1-7.27,13.1,58.81,58.81,0,0,0-5.12-10.22c4.83-5.55,8.93-14.33,11.24-22.25h-9.08v-9.87H554V318.13h10.15m40.11.07v14.26h7.13v9.93h-7.13v31.69c0,5.83-1.08,8.71-4.47,10.36-3.08,1.62-7.67,2.1-13.64,2.1h-1.33a44.15,44.15,0,0,0-3.6-11c4.24.21,8.85.21,10.37.21s1.94-.43,1.94-1.8V342.39H575v-9.93h18.51V318.2h10.73m-20.6,28.37c3.61,5,7.21,11.59,8.36,16.27l-9.44,4.68c-.93-4.53-4.17-11.52-7.56-16.77l8.64-4.18m-19.51-32.44H554a4,4,0,0,0-4,4v10.54h-6.23a4,4,0,0,0-4,4v9.87a4,4,0,0,0,4,4h3.53c-2.35,6.23-5.51,11.95-8.7,15.62a4,4,0,0,0-.41,4.7,55.82,55.82,0,0,1,4.73,9.39A4,4,0,0,0,546,379a4.4,4.4,0,0,0,.73.06,4,4,0,0,0,3.11-1.48l.16-.21v9.21a4,4,0,0,0,4,4h10.15a4,4,0,0,0,4-4V370.44h.18a4,4,0,0,0,3.25-1.66l4.9-6.83a35.13,35.13,0,0,1,2.19,6.38,4,4,0,0,0,3.91,3.19,4.11,4.11,0,0,0,1.78-.41l5.17-2.57v3.19c-2.1,0-5.2-.06-8.11-.21h-.2a4,4,0,0,0-3.58,5.78,40.21,40.21,0,0,1,3.22,9.8,4,4,0,0,0,3.91,3.43h1.38c7.4,0,12-.76,15.45-2.53,5.85-2.89,6.66-8.4,6.66-13.93V346.39h3.13a4,4,0,0,0,4-4v-9.93a4,4,0,0,0-4-4h-3.13V318.2a4,4,0,0,0-4-4H593.55a4,4,0,0,0-4,4v10.26H575a3.93,3.93,0,0,0-1.42.26,3.81,3.81,0,0,0-.59-.05h-4.86V318.13a4,4,0,0,0-4-4Zm6.45,32.41H573a4.14,4.14,0,0,0,1.28-.21,5,5,0,0,0,.56.06l-1.57.75a4,4,0,0,0-1.31,1c-.46-.56-.92-1.1-1.37-1.63Zm17.8-.15h1.13v1.77c-.38-.61-.76-1.2-1.13-1.77Z" transform="translate(-397.16 -313.12)"/><path class="cls-5" d="M623.71,388.61a2,2,0,0,1-1.13-.36,44.72,44.72,0,0,0-9.1-4.27,2,2,0,0,1-1.27-1.15,2,2,0,0,1,.09-1.71c5.22-9.7,5.89-24.33,5.89-36V327.06a2,2,0,0,1,2-2h24.06c-.5-1.52-1.06-3.08-1.58-4.39A2,2,0,0,1,644,318l10.45-2.81a1.81,1.81,0,0,1,.52-.07,2,2,0,0,1,1.83,1.21l.29.66c1.13,2.61,2.53,5.85,3.23,8.07h21.5a2,2,0,0,1,2,2v9.65a2,2,0,0,1-2,2H663.08s0,8.52,0,8.52H678a2,2,0,0,1,2,2v9.94a2,2,0,0,1-2,2H663.09v11.34h18.66a2,2,0,0,1,2,2v10a2,2,0,0,1-2,2H629.83a2,2,0,0,1-2-2V382a42.06,42.06,0,0,1-2.34,5.51,2,2,0,0,1-1.78,1.09Zm24.57-16.1V361.17H634.52a2,2,0,0,1-2-2v-9.86a137.8,137.8,0,0,1-2.18,23.2Zm-15.73-27.38c0,1.35,0,2.68,0,4a2,2,0,0,1,2-1.88h13.76s0-8.5,0-8.52H632.55Z" transform="translate(-397.16 -313.12)"/><path class="cls-2" d="M655,317.12c1.16,2.66,2.74,6.26,3.46,8.57l-4.75,1.37h28.15v9.65H630.55v8.42c0,12-.93,30-6.84,41.48a45.49,45.49,0,0,0-9.65-4.54c5.69-10.59,6.13-26.28,6.13-36.94V327.06H647c-.65-2.24-1.58-5-2.45-7.13L655,317.12m6.13,21.67v10.44H678v9.94H661.09v15.34h20.66v10H629.83v-10h20.45V359.17H634.52v-9.94h15.76V338.79h10.81M655,313.12a3.67,3.67,0,0,0-1,.14l-10.44,2.8a4,4,0,0,0-2.68,5.35q.32.78.63,1.65H620.19a4,4,0,0,0-4,4v18.07c0,7.34,0,24.54-5.65,35a4.06,4.06,0,0,0-.18,3.42,4,4,0,0,0,2.53,2.3,42.21,42.21,0,0,1,8.55,4,4.06,4.06,0,0,0,2.27.71,4.11,4.11,0,0,0,1-.12,4,4,0,0,0,2.58-2.05l.31-.62a4,4,0,0,0,2.25.7h51.92a4,4,0,0,0,4-4v-10a4,4,0,0,0-4-4H665.09v-7.34H678a4,4,0,0,0,4-4v-9.94a4,4,0,0,0-4-4H665.09v-4.52h16.73a4,4,0,0,0,4-4v-9.65a4,4,0,0,0-4-4H661.75c-.78-2.14-1.89-4.71-2.82-6.86l-.29-.67a4,4,0,0,0-3.67-2.41Zm-20.42,27.59h11.73v4.52H634.55v-4.52Zm-1.82,29.8c.39-2.34.72-4.82,1-7.42a4.17,4.17,0,0,0,.8.08h11.76v7.34Z" transform="translate(-397.16 -313.12)"/><path class="cls-6" d="M734.69,388.35c-1.88,0-3.85-.06-5.34-.11a2,2,0,0,1-1.93-1.89,22.12,22.12,0,0,0-3.14-9.17,2,2,0,0,1,1.68-3.09h.18c4.52.42,8.84.42,10.69.42,1,0,1.21-.12,1.7-.65.77-.82,1.34-4.18,1.76-8.61l-7.1,4.33a2,2,0,0,1-1,.29,2.1,2.1,0,0,1-.61-.09,2,2,0,0,1-1.23-1.12c-1.75-4.11-5.75-10.69-9-16l-.33-.56a2,2,0,0,1-.23-1.54,2.11,2.11,0,0,1,.39-.76l-1.35-1v30.4a2,2,0,0,1-2,2H701v3.11a2,2,0,0,1-2,2h-9.44a2,2,0,0,1-2-2V329.86a2,2,0,0,1,2-2h6.55a93.27,93.27,0,0,0,1.25-9.86,2,2,0,0,1,.73-1.42,2,2,0,0,1,1.26-.45,1.27,1.27,0,0,1,.28,0L711,317.73a2,2,0,0,1,1.61,2.64l-.58,1.68c-.67,1.95-1.36,3.94-2,5.81h7.79a2,2,0,0,1,2,2v1.45a82.91,82.91,0,0,0,4.63-13.45,2,2,0,0,1,1.94-1.52,1.88,1.88,0,0,1,.46.06l10.08,2.37a2,2,0,0,1,1.26.94,2,2,0,0,1,.2,1.55c-.51,1.83-1.12,3.77-1.84,5.88h16.84a2,2,0,0,1,2,2c0,.14,0,3.39-.07,4.66-.92,33.87-1.69,44.4-5,48.76-2.51,3.57-5.26,4.71-8.86,5.36A40.64,40.64,0,0,1,734.69,388.35ZM706.39,368v-8.38H701V368Zm24.53-23.54a2,2,0,0,1,1.67.89l1.59,2.39c2.26,3.39,4.73,7.1,6.64,10.29.35-6.1.54-12.7.66-17.42H731.1c-.85,1.74-1.72,3.38-2.59,4.91l1.44-.81A2,2,0,0,1,730.92,344.5Zm-24.53,2.16v-5.72H701v5.72Z" transform="translate(-397.16 -313.12)"/><path class="cls-2" d="M699.31,318.13l11.45,1.58c-1.22,3.53-2.44,7.13-3.6,10.15h10.66v9.58a78,78,0,0,0,8.57-21.1l10.08,2.38c-.79,2.81-1.73,5.62-2.74,8.42h19.66s0,3.32-.07,4.54c-.86,32-1.58,43.71-4.61,47.67-2.23,3.17-4.46,4-7.63,4.61a40.61,40.61,0,0,1-6.39.39c-1.71,0-3.5-.05-5.28-.1A24,24,0,0,0,726,376.09c4.61.43,8.93.43,10.87.43a3.68,3.68,0,0,0,3.17-1.29c2.09-2.23,3-12.82,3.53-36.58H729.85a73.45,73.45,0,0,1-6.13,10.73,61.65,61.65,0,0,0-5.9-4.47v34.28H699v5.11h-9.44V329.86h8.21a96,96,0,0,0,1.58-11.73M699,348.66h9.43v-9.72H699v9.72M699,370h9.43V357.66H699V370m32-23.54c3.24,4.89,7.92,11.73,10.08,16l-8.86,5.4c-1.87-4.39-6.19-11.45-9.43-16.77l8.21-4.61m-31.62-32.37a4,4,0,0,0-4,3.75c-.14,2.26-.48,5.13-.94,8h-4.86a4,4,0,0,0-4,4V384.3a4,4,0,0,0,4,4H699a4,4,0,0,0,4-4v-1.11h14.86a4,4,0,0,0,4-4V357.34a120.06,120.06,0,0,1,6.65,12.11,4,4,0,0,0,2.46,2.24,4,4,0,0,0,3.3-.39l3.61-2.2a13.67,13.67,0,0,1-.83,3.42h-.18c-2,0-6.08,0-10.5-.41l-.37,0a4,4,0,0,0-3.36,6.18,20,20,0,0,1,2.82,8.18,4,4,0,0,0,3.86,3.79c1.51.05,3.5.11,5.41.11a42.19,42.19,0,0,0,7.08-.45c4-.73,7.24-2.06,10.17-6.19,3.66-4.87,4.44-15.09,5.38-49.86.07-1.34.07-4.36.07-4.71a4,4,0,0,0-4-4H739.32c.36-1.15.7-2.26,1-3.33a4,4,0,0,0-2.93-5l-10.08-2.38a4.2,4.2,0,0,0-.92-.11,4,4,0,0,0-3.88,3,80.47,80.47,0,0,1-2.81,9,3.86,3.86,0,0,0-1.88-.48h-5l1.1-3.15.58-1.69a4,4,0,0,0-3.23-5.27l-11.45-1.59a4.93,4.93,0,0,0-.55,0Zm33,28.52h7.08c-.07,2.63-.16,5.76-.29,9-1.09-1.67-2.21-3.35-3.29-5l-1.58-2.38a4,4,0,0,0-2-1.55l0-.09Zm-29.38.29h1.43v1.72H703v-1.72Zm0,18.72h1.43V366H703v-4.38Z" transform="translate(-397.16 -313.12)"/><path class="cls-3" d="M820.93,388.61a2,2,0,0,1-.76-.15,46.64,46.64,0,0,1-16-10.67,61.42,61.42,0,0,1-19.73,10.71,2.06,2.06,0,0,1-.65.11,2,2,0,0,1-1.89-1.36,44.84,44.84,0,0,0-5.25-9.16,2,2,0,0,1,1-3.13c7.37-2.09,13.24-5.06,17.91-9a76.6,76.6,0,0,1-4.1-9.36l-.25.32a2,2,0,0,1-1.39.75h-.14a1.91,1.91,0,0,1,.15.58l1.08,9.29a2,2,0,0,1-1.44,2.15c-9.55,2.69-19.72,5.41-28.4,7.72a2.22,2.22,0,0,1-.51.06,1.9,1.9,0,0,1-1-.29,2,2,0,0,1-.92-1.27L756.19,365a2,2,0,0,1,.28-1.54,2,2,0,0,1,1.31-.87c2.32-.42,5.11-1,8.15-1.55V338.42h-6.42a2,2,0,0,1-2-2v-10a2,2,0,0,1,2-2h27.57a2,2,0,0,1,2,2v4.23a94.29,94.29,0,0,0,3.75-13.14,2,2,0,0,1,2-1.59,1.72,1.72,0,0,1,.39,0L805.55,318a2,2,0,0,1,1.55,2.43c-.65,2.72-1.4,5.45-2.22,8.11h21.81a2,2,0,0,1,2,2v10a2,2,0,0,1-2,2h-3.21c-2.12,9.56-5.14,17.34-9.21,23.69a38.25,38.25,0,0,0,14.52,8.93,2,2,0,0,1,.68,3.37,41.05,41.05,0,0,0-6.78,9A2,2,0,0,1,820.93,388.61ZM780.3,358.05l2.37-.51c1.59-.34,3.19-.68,4.76-1l.13,0a66.41,66.41,0,0,0-7.26-5.05Zm21.42-15.46a64.36,64.36,0,0,0,3.44,10.11,58,58,0,0,0,3.28-10.11Zm-21.42,4.26a45.88,45.88,0,0,0,5.41-8.43H780.3Z" transform="translate(-397.16 -313.12)"/><path class="cls-2" d="M794.79,317.91,805.16,320c-.87,3.6-1.87,7.13-3,10.58h24.56v10h-4.83c-2.16,10.44-5.4,19-10.15,25.93a40.39,40.39,0,0,0,16.42,10.58,42.52,42.52,0,0,0-7.2,9.51A44.65,44.65,0,0,1,804.29,375c-5.47,5-12.17,8.71-20.52,11.6a47,47,0,0,0-5.54-9.73c8.35-2.37,14.83-5.83,19.87-10.51a78.54,78.54,0,0,1-6-14.11c-.79,1.15-1.58,2.3-2.44,3.38a63.84,63.84,0,0,0-8.93-6.26c6.55-7.13,11.45-19.23,14-31.47m16.13,22.68H799.18a64,64,0,0,0,6,16.64,58.09,58.09,0,0,0,5.76-16.64m-23.84-14.18v10H778.3v24.12c3.17-.72,6.41-1.37,9.58-2.09l1.08,9.29c-9.72,2.74-20.24,5.54-28.37,7.7l-2.45-10.87c2.73-.5,6.12-1.15,9.79-1.87V336.42h-8.42v-10h27.57m7.7-12.5a4,4,0,0,0-3.9,3.17q-.66,3.1-1.49,6.06a4,4,0,0,0-2.31-.73H759.51a4,4,0,0,0-4,4v10a4,4,0,0,0,4,4h4.42v19c-2.48.48-4.66.9-6.52,1.24a4,4,0,0,0-3.17,4.81l2.44,10.87a4,4,0,0,0,3.91,3.12,4,4,0,0,0,1-.13c4-1.06,8.32-2.21,12.74-3.41a4,4,0,0,0,.69,3.4,44.86,44.86,0,0,1,5,8.6,4,4,0,0,0,3.78,2.71,4.24,4.24,0,0,0,1.31-.22A64.79,64.79,0,0,0,804,380.47a49.06,49.06,0,0,0,15.39,9.84,4,4,0,0,0,5-1.81,38.72,38.72,0,0,1,6.37-8.44,4,4,0,0,0-1.37-6.73,36.54,36.54,0,0,1-12.62-7.39,74.42,74.42,0,0,0,8.24-21.35h1.62a4,4,0,0,0,4-4v-10a4,4,0,0,0-4-4H807.56c.54-1.87,1-3.76,1.49-5.65a4,4,0,0,0-3.1-4.85L795.58,314a4.34,4.34,0,0,0-.8-.08ZM782.3,340.42h0l0,0v0Zm22,4.17h1.53c-.24.86-.48,1.69-.74,2.5-.27-.81-.54-1.65-.79-2.5Zm-22,11v-.5l.55.38-.55.12Zm10.44,10.08-.14-1.23c.15.33.31.66.47,1l-.33.25Z" transform="translate(-397.16 -313.12)"/><path class="cls-7" d="M884.29,388.61a2,2,0,0,1-2-2v-.17h-7.81v.17a2,2,0,0,1-2,2h-9.72a2,2,0,0,1-2-2V374.05a2,2,0,0,1-1.6.8H842.87v3.62a2,2,0,0,1-2,2h-7.49a2,2,0,0,1-2-2V322.38a2,2,0,0,1,2-2h25.78a2,2,0,0,1,2,2v7.54a46,46,0,0,0,7.21-12.57,2,2,0,0,1,2.41-1.22l9.86,2.73a2,2,0,0,1,1.27,1.06,2,2,0,0,1,0,1.65l-.58,1.4h6.7l1.49-.38a2,2,0,0,1,.49,0,2.06,2.06,0,0,1,.88.2l6.84,3.39a2,2,0,0,1,1,2.46,58.82,58.82,0,0,1-10.14,17.8,45.94,45.94,0,0,0,12.54,5.67,2,2,0,0,1,1.41,1.46,2,2,0,0,1-.59,1.93,40,40,0,0,0-5.55,7.09v24.07a2,2,0,0,1-2,2Zm-2-15.24V370.6h-7.81v2.77Zm-2.09-15.84c-.57-.43-1.13-.86-1.69-1.31-.56.44-1.14.88-1.72,1.31Zm-19-6.49a53.81,53.81,0,0,0,7.54-4.65c-.54-.67-1-1.34-1.51-2-.85.84-1.77,1.71-2.81,2.65a2,2,0,0,1-1.34.51h-.12a2,2,0,0,1-1.39-.7l-.37-.42Zm15.55-15.5c.47.61.95,1.21,1.46,1.79.48-.6.94-1.2,1.37-1.79Z" transform="translate(-397.16 -313.12)"/><path class="cls-2" d="M870.25,318.05l9.86,2.74c-.58,1.37-1.15,2.81-1.87,4.18h10.08l1.73-.43,6.84,3.38a57,57,0,0,1-11.24,18.87,48.52,48.52,0,0,0,15,7.2,41.76,41.76,0,0,0-6.19,8v24.63H884.29v-2.17H872.48v2.17h-9.72V363.35l-.87.36a34.17,34.17,0,0,0-2.73-4.25v13.39H840.87v5.62h-7.49V322.38h25.78v12.67a46.82,46.82,0,0,0,11.09-17m-21.1,24.49h2.23V331.3h-2.23v11.24m-8.28,0h2V331.3h-2v11.24m42.41-9h-9.94l-.22.36a41.14,41.14,0,0,0,5.12,6.48,51.2,51.2,0,0,0,5-6.84m-20.24,12c-.86-1-2.37-2.59-3.88-4.1V354.2a55.23,55.23,0,0,0,12.38-7.49,56.88,56.88,0,0,1-4.1-5.47,59.21,59.21,0,0,1-4.4,4.32M849.15,364h2.23V351h-2.23v13m-8.28,0h2V351h-2v13m29.23-4.47h16.78a54.09,54.09,0,0,1-8.35-5.9,62,62,0,0,1-8.43,5.9m2.38,15.84h11.81V368.6H872.48v6.77m-2.24-61.32a4,4,0,0,0-3.74,2.6,43.48,43.48,0,0,1-3.34,6.91v-1.18a4,4,0,0,0-4-4H833.38a4,4,0,0,0-4,4v56.09a4,4,0,0,0,4,4h7.49a4,4,0,0,0,4-4v-1.62h13.89v9.76a4,4,0,0,0,4,4h9.72a4,4,0,0,0,3.55-2.17h4.7a4,4,0,0,0,3.56,2.17h10.15a4,4,0,0,0,4-4V363.12a37.41,37.41,0,0,1,4.91-6.2,4,4,0,0,0-1.63-6.78,44.5,44.5,0,0,1-10.12-4.27,60.73,60.73,0,0,0,9.06-16.61,4,4,0,0,0-2-4.93L891.82,321a4,4,0,0,0-1.77-.41,4,4,0,0,0-1,.11l-1.25.32h-3.72a4,4,0,0,0-.4-1.92,4,4,0,0,0-2.53-2.11l-9.87-2.74a3.89,3.89,0,0,0-1.07-.15Z" transform="translate(-397.16 -313.12)"/><path class="cls-8" d="M951.53,388.46a2,2,0,0,1-2-2v-2.18H924.16v2.18a2,2,0,0,1-2,2H911.5a2,2,0,0,1-2-2V338.58a2,2,0,0,1,2-2h15.94c.16-1,.3-1.91.42-2.77h-23a2,2,0,0,1-2-2V321.58a2,2,0,0,1,2-2h63.87a2,2,0,0,1,2,2v10.23a2,2,0,0,1-2,2H943.91c-.28,1-.53,1.93-.78,2.77h19.64a2,2,0,0,1,2,2v47.88a2,2,0,0,1-2,2Zm-2-17.82v-3.56H924.16v3.56Zm0-17v-3.41H924.16v3.41Z" transform="translate(-397.16 -313.12)"/><path class="cls-2" d="M968.74,321.58v10.23H942.39c-.65,2.37-1.3,4.68-1.94,6.77h22.32v47.88H951.53v-4.18H922.16v4.18H911.5V338.58h17.64c.36-2.16.72-4.47,1-6.77H904.87V321.58h63.87m-46.58,34.06h29.37v-7.41H922.16v7.41m0,17h29.37v-7.56H922.16v7.56m46.58-55.06H904.87a4,4,0,0,0-4,4v10.23a4,4,0,0,0,4,4h3.74a4,4,0,0,0-1.11,2.77v47.88a4,4,0,0,0,4,4h10.66a4,4,0,0,0,4-4v-.18h21.37v.18a4,4,0,0,0,4,4h11.24a4,4,0,0,0,4-4V338.58a4,4,0,0,0-1.12-2.77h3.09a4,4,0,0,0,4-4V321.58a4,4,0,0,0-4-4Z" transform="translate(-397.16 -313.12)"/><path class="cls-9" d="M984.94,388.53a2,2,0,0,1-2-2V372.72a40.37,40.37,0,0,1-2.75,4.15,2,2,0,0,1-1.59.79l-.35,0a2,2,0,0,1-1.56-1.38,54.56,54.56,0,0,0-4.56-9.65,2,2,0,0,1,.2-2.32,59.65,59.65,0,0,0,8.26-14.2h-5.88a2,2,0,0,1-2-2v-9.72a2,2,0,0,1,2-2h8.23V334c-1.63.23-3.27.45-4.87.6h-.19a2,2,0,0,1-2-1.69,32.5,32.5,0,0,0-2.57-7.5,2,2,0,0,1,0-1.81,2,2,0,0,1,1.47-1,108.1,108.1,0,0,0,22.95-5.86,2.17,2.17,0,0,1,.75-.14,2,2,0,0,1,1.66.89l5.61,8.45,6.26-5.33a2,2,0,0,1,1.3-.48,2,2,0,0,1,1.26.44,85.76,85.76,0,0,1,8.33,7.63V318.05a2,2,0,0,1,2-2h10.3a2,2,0,0,1,2,2v38l4.13-.73.35,0a2,2,0,0,1,1.16.37,2,2,0,0,1,.82,1.31l1.58,9.87a2,2,0,0,1-1.62,2.28l-6.42,1.15v16.18a2,2,0,0,1-2,2H1025a2,2,0,0,1-2-2V372.88l-18.45,3.38a2.1,2.1,0,0,1-.36,0,2,2,0,0,1-1.15-.36,2,2,0,0,1-.82-1.31l-1.48-8.92-1,1.34a2,2,0,0,1-1.61.83h-.22a2.22,2.22,0,0,1-.81-.27v18.94a2,2,0,0,1-2,2Zm14.82-38.45c2.71,2.82,5.77,6.19,5.82,6.24a2,2,0,0,1,.13,2.51l-2.38,3.27,10.65-1.91a2,2,0,0,1-.84-.73c-1.72-2.67-5.43-6.47-8.71-9.44a1.91,1.91,0,0,1-.48.06Zm16.49,9.71,6.72-1.21v-5.05ZM1010.72,339a2,2,0,0,1,1.22.42,75.62,75.62,0,0,1,11,10.19V336.48l-4.81,4.24a2,2,0,0,1-1.32.5,1.72,1.72,0,0,1-.32,0,2,2,0,0,1-1.4-1c-1.78-3-6.32-7.71-9.89-10.81a2,2,0,0,1-.36-.41c-2.4.84-5,1.61-7.78,2.28v5.06H1004a2,2,0,0,1,2,2v4.24l3.43-3.07A2,2,0,0,1,1010.72,339Z" transform="translate(-397.16 -313.12)"/><path class="cls-2" d="M1035.27,318.05v40.4l6.48-1.15,1.59,9.86-8.07,1.44v17.86H1025v-16l-20.81,3.81-1.65-10,22.46-4v-42.2h10.3m-36.72.51,5.69,8.57a84.24,84.24,0,0,1-9.15,2.59v8.64H1004v9.72h-8.86v.22c1.95,1.65,7.63,7.85,9,9.36l-6,8.21a65.1,65.1,0,0,0-3-6v26.64H984.94V364.28a57.35,57.35,0,0,1-6.34,11.38,56,56,0,0,0-4.75-10.08c3.74-4.39,7.27-11.23,9.72-17.5h-8.86v-9.72h10.23v-6.7c-2.38.36-4.75.72-7.06.94a34.39,34.39,0,0,0-2.73-8.06,111.31,111.31,0,0,0,23.4-6m14.83,3.53c3.74,3,8.64,7.49,10.8,10.65l-7.34,6.48c-1.88-3.16-6.48-8-10.3-11.3l6.84-5.83M1010.72,341c3.89,3,9,7.48,11.3,10.65l-7.2,6.7c-2.09-3.24-6.91-8.07-10.8-11.38l6.7-6m24.55-27H1025a4,4,0,0,0-4,4v5.32c-2.15-2-4.14-3.64-5.08-4.39a3.93,3.93,0,0,0-2.51-.89,4,4,0,0,0-2.59,1l-4.55,3.88-4.36-6.57a4,4,0,0,0-3.33-1.79,3.87,3.87,0,0,0-1.49.29,108.35,108.35,0,0,1-22.5,5.73,4,4,0,0,0-3,5.7,31,31,0,0,1,2.39,6.94,3.84,3.84,0,0,0,.37,1.16,4,4,0,0,0-3.59,4v9.72a4,4,0,0,0,4,4h2.77a52,52,0,0,1-6.67,10.9,4,4,0,0,0-.4,4.64,52.16,52.16,0,0,1,4.37,9.22,4,4,0,0,0,3.12,2.76,4.23,4.23,0,0,0,.7.06,4.07,4.07,0,0,0,2.34-.75v7.62a4,4,0,0,0,4,4h10.15a4,4,0,0,0,4-4V369.75l.26-.08.87,5.28a4,4,0,0,0,3.94,3.34,4.49,4.49,0,0,0,.73-.06l16.08-3v11.18a4,4,0,0,0,4,4h10.3a4,4,0,0,0,4-4V372l4.77-.85a4,4,0,0,0,3.25-4.57l-1.59-9.87a4,4,0,0,0-1.63-2.62,4,4,0,0,0-2.32-.74,4.14,4.14,0,0,0-.7.06l-1.78.32V318.05a4,4,0,0,0-4-4Zm-36.18,18.81c1.83-.48,3.59-1,5.26-1.54a71.54,71.54,0,0,1,5.79,5.75,4,4,0,0,0-2.09,1l-.11.1a4,4,0,0,0-4-3.78h-4.86v-1.5Zm19.81,9.79a3.48,3.48,0,0,0,.58-.43l1.49-1.31v3.67c-.68-.66-1.38-1.31-2.07-1.93Zm-11.15,16.63a4,4,0,0,0,0-3.21c.93,1,1.76,1.92,2.44,2.77l-2.45.44Z" transform="translate(-397.16 -313.12)"/></svg>